<svg width="550" height="346" viewBox="0 0 550 346" fill="none" xmlns="http://www.w3.org/2000/svg">
<rect width="550" height="346" rx="31" fill="url(#paint0_linear_14_87)" fill-opacity="0.9"/>
<path d="M35.72 301L45.908 275.692H49.904L60.056 301H54.836L46.988 280.228H48.788L40.832 301H35.72ZM41.12 296.284V292.18H54.728V296.284H41.12ZM41.048 268.636H54.728V272.308H41.048V268.636ZM72.4704 301.36C71.2224 301.36 70.0944 301.108 69.0864 300.604C68.0784 300.076 67.2744 299.368 66.6744 298.48C66.0744 297.592 65.7504 296.572 65.7024 295.42V289.264C65.7504 288.112 66.0744 287.092 66.6744 286.204C67.2984 285.292 68.1024 284.572 69.0864 284.044C70.0944 283.516 71.2224 283.252 72.4704 283.252C74.0784 283.252 75.5184 283.648 76.7904 284.44C78.0624 285.232 79.0584 286.312 79.7784 287.68C80.5224 289.048 80.8944 290.596 80.8944 292.324C80.8944 294.028 80.5224 295.564 79.7784 296.932C79.0584 298.3 78.0624 299.38 76.7904 300.172C75.5184 300.964 74.0784 301.36 72.4704 301.36ZM62.8224 308.272V283.612H67.5384V288.184L66.7464 292.396L67.5024 296.608V308.272H62.8224ZM71.6424 297.004C72.5064 297.004 73.2744 296.812 73.9464 296.428C74.6184 296.02 75.1344 295.468 75.4944 294.772C75.8784 294.052 76.0704 293.224 76.0704 292.288C76.0704 291.376 75.8784 290.572 75.4944 289.876C75.1344 289.156 74.6184 288.604 73.9464 288.22C73.2744 287.812 72.5064 287.608 71.6424 287.608C70.8024 287.608 70.0464 287.812 69.3744 288.22C68.7024 288.604 68.1744 289.156 67.7904 289.876C67.4304 290.572 67.2504 291.376 67.2504 292.288C67.2504 293.224 67.4304 294.052 67.7904 294.772C68.1744 295.468 68.6904 296.02 69.3384 296.428C70.0104 296.812 70.7784 297.004 71.6424 297.004ZM83.9864 301V283.612H88.7384V301H83.9864ZM86.3624 280.804C85.5944 280.804 84.9584 280.552 84.4544 280.048C83.9504 279.52 83.6984 278.872 83.6984 278.104C83.6984 277.36 83.9504 276.724 84.4544 276.196C84.9584 275.668 85.5944 275.404 86.3624 275.404C87.1544 275.404 87.7904 275.668 88.2704 276.196C88.7744 276.724 89.0264 277.36 89.0264 278.104C89.0264 278.872 88.7744 279.52 88.2704 280.048C87.7904 280.552 87.1544 280.804 86.3624 280.804ZM92.9161 301V283.612H97.6321V301H92.9161ZM97.6321 291.388L95.7961 290.164C96.0121 288.028 96.6361 286.348 97.6681 285.124C98.7001 283.876 100.188 283.252 102.132 283.252C102.972 283.252 103.728 283.396 104.4 283.684C105.072 283.948 105.684 284.392 106.236 285.016L103.284 288.4C103.02 288.112 102.696 287.896 102.312 287.752C101.952 287.608 101.532 287.536 101.052 287.536C100.044 287.536 99.2161 287.86 98.5681 288.508C97.9441 289.132 97.6321 290.092 97.6321 291.388ZM114.673 301.36C113.089 301.36 111.661 300.964 110.389 300.172C109.117 299.38 108.121 298.3 107.401 296.932C106.681 295.564 106.321 294.028 106.321 292.324C106.321 290.596 106.681 289.048 107.401 287.68C108.121 286.312 109.117 285.232 110.389 284.44C111.661 283.648 113.089 283.252 114.673 283.252C115.921 283.252 117.037 283.504 118.021 284.008C119.005 284.512 119.785 285.22 120.361 286.132C120.961 287.02 121.285 288.028 121.333 289.156V295.42C121.285 296.572 120.961 297.592 120.361 298.48C119.785 299.368 119.005 300.076 118.021 300.604C117.037 301.108 115.921 301.36 114.673 301.36ZM115.537 297.004C116.857 297.004 117.925 296.572 118.741 295.708C119.557 294.82 119.965 293.68 119.965 292.288C119.965 291.376 119.773 290.572 119.389 289.876C119.029 289.156 118.513 288.604 117.841 288.22C117.193 287.812 116.425 287.608 115.537 287.608C114.673 287.608 113.905 287.812 113.233 288.22C112.585 288.604 112.069 289.156 111.685 289.876C111.325 290.572 111.145 291.376 111.145 292.288C111.145 293.224 111.325 294.052 111.685 294.772C112.069 295.468 112.585 296.02 113.233 296.428C113.905 296.812 114.673 297.004 115.537 297.004ZM119.713 301V296.32L120.469 292.072L119.713 287.896V283.612H124.393V301H119.713ZM140.265 301V291.028C140.265 289.996 139.941 289.156 139.293 288.508C138.645 287.86 137.805 287.536 136.773 287.536C136.101 287.536 135.501 287.68 134.973 287.968C134.445 288.256 134.025 288.664 133.713 289.192C133.425 289.72 133.281 290.332 133.281 291.028L131.445 290.092C131.445 288.724 131.733 287.536 132.309 286.528C132.909 285.496 133.725 284.692 134.757 284.116C135.813 283.54 137.001 283.252 138.321 283.252C139.593 283.252 140.733 283.576 141.741 284.224C142.749 284.848 143.541 285.676 144.117 286.708C144.693 287.716 144.981 288.808 144.981 289.984V301H140.265ZM128.565 301V283.612H133.281V301H128.565ZM156.051 301.36C154.467 301.36 153.039 300.964 151.767 300.172C150.495 299.38 149.499 298.3 148.779 296.932C148.059 295.564 147.699 294.028 147.699 292.324C147.699 290.596 148.059 289.048 148.779 287.68C149.499 286.312 150.495 285.232 151.767 284.44C153.039 283.648 154.467 283.252 156.051 283.252C157.299 283.252 158.415 283.504 159.399 284.008C160.383 284.512 161.163 285.22 161.739 286.132C162.339 287.02 162.663 288.028 162.711 289.156V295.42C162.663 296.572 162.339 297.592 161.739 298.48C161.163 299.368 160.383 300.076 159.399 300.604C158.415 301.108 157.299 301.36 156.051 301.36ZM156.915 297.004C158.235 297.004 159.303 296.572 160.119 295.708C160.935 294.82 161.343 293.68 161.343 292.288C161.343 291.376 161.151 290.572 160.767 289.876C160.407 289.156 159.891 288.604 159.219 288.22C158.571 287.812 157.803 287.608 156.915 287.608C156.051 287.608 155.283 287.812 154.611 288.22C153.963 288.604 153.447 289.156 153.063 289.876C152.703 290.572 152.523 291.376 152.523 292.288C152.523 293.224 152.703 294.052 153.063 294.772C153.447 295.468 153.963 296.02 154.611 296.428C155.283 296.812 156.051 297.004 156.915 297.004ZM161.091 301V296.32L161.847 292.072L161.091 287.896V283.612H165.771V301H161.091ZM177.479 301V275.692H180.899L182.375 280.588V301H177.479ZM194.975 301L179.963 281.56L180.899 275.692L195.911 295.132L194.975 301ZM194.975 301L193.571 296.248V275.692H198.503V301H194.975ZM210.403 308.704C208.555 308.704 206.923 308.368 205.507 307.696C204.091 307.048 202.963 306.124 202.123 304.924L205.111 301.936C205.783 302.728 206.527 303.328 207.343 303.736C208.183 304.168 209.191 304.384 210.367 304.384C211.831 304.384 212.983 304.012 213.823 303.268C214.687 302.524 215.119 301.492 215.119 300.172V295.816L215.911 292L215.155 288.184V283.612H219.835V300.1C219.835 301.828 219.427 303.328 218.611 304.6C217.819 305.896 216.715 306.904 215.299 307.624C213.883 308.344 212.251 308.704 210.403 308.704ZM210.187 300.532C208.627 300.532 207.223 300.16 205.975 299.416C204.727 298.648 203.743 297.604 203.023 296.284C202.327 294.964 201.979 293.488 201.979 291.856C201.979 290.224 202.327 288.76 203.023 287.464C203.743 286.168 204.727 285.148 205.975 284.404C207.223 283.636 208.627 283.252 210.187 283.252C211.483 283.252 212.623 283.504 213.607 284.008C214.615 284.512 215.407 285.208 215.983 286.096C216.559 286.96 216.871 287.98 216.919 289.156V294.628C216.871 295.78 216.547 296.812 215.947 297.724C215.371 298.612 214.579 299.308 213.571 299.812C212.587 300.292 211.459 300.532 210.187 300.532ZM211.123 296.248C211.987 296.248 212.731 296.068 213.355 295.708C214.003 295.324 214.507 294.808 214.867 294.16C215.227 293.488 215.407 292.732 215.407 291.892C215.407 291.028 215.227 290.272 214.867 289.624C214.507 288.976 214.003 288.472 213.355 288.112C212.731 287.728 211.987 287.536 211.123 287.536C210.259 287.536 209.503 287.728 208.855 288.112C208.207 288.472 207.703 288.988 207.343 289.66C206.983 290.308 206.803 291.052 206.803 291.892C206.803 292.708 206.983 293.452 207.343 294.124C207.703 294.772 208.207 295.288 208.855 295.672C209.503 296.056 210.259 296.248 211.123 296.248ZM231.251 301.36C229.667 301.36 228.239 300.964 226.967 300.172C225.695 299.38 224.699 298.3 223.979 296.932C223.259 295.564 222.899 294.028 222.899 292.324C222.899 290.596 223.259 289.048 223.979 287.68C224.699 286.312 225.695 285.232 226.967 284.44C228.239 283.648 229.667 283.252 231.251 283.252C232.499 283.252 233.615 283.504 234.599 284.008C235.583 284.512 236.363 285.22 236.939 286.132C237.539 287.02 237.863 288.028 237.911 289.156V295.42C237.863 296.572 237.539 297.592 236.939 298.48C236.363 299.368 235.583 300.076 234.599 300.604C233.615 301.108 232.499 301.36 231.251 301.36ZM232.115 297.004C233.435 297.004 234.503 296.572 235.319 295.708C236.135 294.82 236.543 293.68 236.543 292.288C236.543 291.376 236.351 290.572 235.967 289.876C235.607 289.156 235.091 288.604 234.419 288.22C233.771 287.812 233.003 287.608 232.115 287.608C231.251 287.608 230.483 287.812 229.811 288.22C229.163 288.604 228.647 289.156 228.263 289.876C227.903 290.572 227.723 291.376 227.723 292.288C227.723 293.224 227.903 294.052 228.263 294.772C228.647 295.468 229.163 296.02 229.811 296.428C230.483 296.812 231.251 297.004 232.115 297.004ZM236.291 301V296.32L237.047 292.072L236.291 287.896V283.612H240.971V301H236.291ZM247.699 301V276.376H252.415V301H247.699ZM243.631 287.752V283.612H256.483V287.752H243.631ZM265.985 301.36C264.401 301.36 262.973 300.964 261.701 300.172C260.429 299.38 259.433 298.3 258.713 296.932C257.993 295.564 257.633 294.028 257.633 292.324C257.633 290.596 257.993 289.048 258.713 287.68C259.433 286.312 260.429 285.232 261.701 284.44C262.973 283.648 264.401 283.252 265.985 283.252C267.233 283.252 268.349 283.504 269.333 284.008C270.317 284.512 271.097 285.22 271.673 286.132C272.273 287.02 272.597 288.028 272.645 289.156V295.42C272.597 296.572 272.273 297.592 271.673 298.48C271.097 299.368 270.317 300.076 269.333 300.604C268.349 301.108 267.233 301.36 265.985 301.36ZM266.849 297.004C268.169 297.004 269.237 296.572 270.053 295.708C270.869 294.82 271.277 293.68 271.277 292.288C271.277 291.376 271.085 290.572 270.701 289.876C270.341 289.156 269.825 288.604 269.153 288.22C268.505 287.812 267.737 287.608 266.849 287.608C265.985 287.608 265.217 287.812 264.545 288.22C263.897 288.604 263.381 289.156 262.997 289.876C262.637 290.572 262.457 291.376 262.457 292.288C262.457 293.224 262.637 294.052 262.997 294.772C263.381 295.468 263.897 296.02 264.545 296.428C265.217 296.812 265.985 297.004 266.849 297.004ZM271.025 301V296.32L271.781 292.072L271.025 287.896V283.612H275.705V301H271.025Z" fill="#32303E"/>
<path d="M83.1481 41.0415C85.6669 38.5226 89.7508 38.5226 92.2697 41.0415C103.465 52.2364 103.465 70.3869 92.2696 81.5819L75.5321 98.3194C73.0132 100.838 68.9294 100.838 66.4105 98.3194C55.2156 87.1245 55.2156 68.974 66.4105 57.7791L83.1481 41.0415Z" fill="#32303E"/>
<path d="M28.6644 51.2585C26.6406 48.327 27.3764 44.31 30.3079 42.2862C43.3367 33.2916 61.1901 36.5619 70.1848 49.5906L100.665 93.7415C102.689 96.6729 101.953 100.69 99.0215 102.714C85.9928 111.708 68.1393 108.438 59.1447 95.4093L28.6644 51.2585Z" fill="#32303E"/>
<circle cx="456.667" cy="288.537" r="35.6667" fill="#FF626F" fill-opacity="0.8"/>
<circle cx="492.333" cy="287.667" r="35.6667" fill="#FF9662" fill-opacity="0.8"/>
<defs>
<linearGradient id="paint0_linear_14_87" x1="550" y1="173" x2="0" y2="173" gradientUnits="userSpaceOnUse">
<stop stop-color="#F2A0CA"/>
<stop offset="1" stop-color="#FE9694"/>
</linearGradient>
</defs>
</svg>
