<svg width="75" height="79" viewBox="0 0 75 79" fill="none" xmlns="http://www.w3.org/2000/svg">
<path d="M49.3946 12.7772C51.5343 10.6376 55.0034 10.6376 57.1431 12.7772C66.6527 22.2869 66.6527 37.7051 57.1431 47.2147L42.9252 61.4327C40.7855 63.5723 37.3164 63.5723 35.1767 61.4327C25.6671 51.923 25.6671 36.5048 35.1767 26.9952L49.3946 12.7772Z" fill="#32303E"/>
<path d="M3.11277 21.4562C1.39363 18.966 2.01869 15.5537 4.50886 13.8346C15.5763 6.19396 30.7422 8.97197 38.3828 20.0394L64.2746 57.5439C65.9937 60.0341 65.3687 63.4464 62.8785 65.1655C51.8111 72.8061 36.6452 70.0281 29.0046 58.9607L3.11277 21.4562Z" fill="#32303E"/>
</svg>
